<svg xmlns="http://www.w3.org/2000/svg" version="1.1" xmlns:xlink="http://www.w3.org/1999/xlink" xmlns:svgjs="http://svgjs.dev/svgjs" width="1440" height="560" preserveAspectRatio="none" viewBox="0 0 1440 560"><g mask="url(&quot;#SvgjsMask1000&quot;)" fill="none"><rect width="1440" height="560" x="0" y="0" fill="#0e2a47"></rect><path d="M 0,16 C 57.6,43.8 172.8,141.8 288,155 C 403.2,168.2 460.8,74.4 576,82 C 691.2,89.6 748.8,197.6 864,193 C 979.2,188.4 1036.8,45.2 1152,59 C 1267.2,72.8 1382.4,221.4 1440,262L1440 560L0 560z" fill="#184a7e"></path><path d="M 0,471 C 96,442.4 288,328 480,328 C 672,328 768,472.2 960,471 C 1152,469.8 1344,351.8 1440,322L1440 560L0 560z" fill="#2264ab"></path></g><defs><mask id="SvgjsMask1000"><rect width="1440" height="560" fill="#ffffff"></rect></mask></defs></svg>